<svg width="4622" height="1450" viewBox="0 0 4622 1450" fill="none" xmlns="http://www.w3.org/2000/svg">
<path fill-rule="evenodd" clip-rule="evenodd" d="M2612.57 344.847C2611.08 345.011 2609.47 345.187 2607.7 345.364H2607.04C2607.99 348.02 2608.76 350.442 2609.49 352.708C2610.62 356.258 2611.64 359.425 2612.98 362.511C2616.45 369.951 2620.05 377.267 2623.67 384.645C2624.87 387.078 2626.07 389.517 2627.27 391.969C2656.18 451.875 2685.14 511.835 2714.1 571.796C2743.07 631.756 2772.03 691.716 2800.94 751.622C2836.11 824.827 2871.51 898.033 2907.12 971.238C2911.52 980.032 2912.18 987.726 2907.78 996.3C2904.01 1003.47 2900.83 1010.8 2897.64 1018.14C2896.92 1019.8 2896.2 1021.46 2895.47 1023.12C2860.62 1100.61 2825.72 1178.05 2790.83 1255.49C2761.61 1320.31 2732.39 1385.14 2703.21 1450L2963.54 1448L2966.26 1441.91C3007.37 1349.8 3048.69 1257.47 3090.02 1165.35C3117.61 1103.69 3145.26 1041.97 3172.9 980.251C3200.55 918.532 3228.19 856.813 3255.78 795.149C3276.45 749.094 3297.05 702.983 3317.66 656.872C3338.27 610.762 3358.88 564.651 3379.55 518.595C3382.16 512.735 3384.76 506.87 3387.37 501.003C3404.34 462.856 3421.35 424.609 3438.68 386.693C3439.06 385.865 3439.37 384.951 3439.71 384C3441.13 379.901 3442.8 375.109 3450.12 373.503C3450.21 374.433 3450.31 375.34 3450.4 376.227C3450.95 381.423 3451.43 385.956 3451.43 390.65V543.217C3451.43 544.609 3451.41 546.001 3451.39 547.394C3451.34 550.178 3451.29 552.963 3451.43 555.747C3452.09 566.519 3453.63 568.278 3464.41 568.498H3497.16C3511.71 568.609 3518.52 567.935 3521.69 571.01C3524.8 574.021 3524.42 580.63 3524.42 595.098V1068.19C3524.42 1086.21 3524.64 1086.65 3542.45 1086.65H3738.54C3741.88 1086.65 3745.33 1086.23 3749.25 1085.75C3751 1085.54 3752.84 1085.32 3754.81 1085.11V1063.57V596.637V582.568C3755.25 569.817 3756.35 568.718 3769.54 568.278H3780.53H3859.89C3875.94 568.278 3876.6 567.838 3876.6 551.571V361.632C3876.6 344.265 3875.94 343.605 3857.91 343.605H3775.47C3771.07 343.605 3766.77 343.155 3762.03 342.657C3760.14 342.459 3758.19 342.254 3756.13 342.066C3755.98 339.923 3755.81 337.929 3755.64 336.033C3755.32 332.291 3755.03 328.935 3755.03 325.579V215.001C3755.03 207.47 3755.05 199.914 3755.08 192.342C3755.13 177.149 3755.18 161.89 3755.03 146.632C3755.03 134.761 3753.27 133.442 3741.62 132.782H3737H3543.99C3540.91 132.782 3537.83 133.002 3534.75 133.222C3528.82 133.881 3525.3 137.179 3525.08 143.334V155.865V320.742C3524.93 336.131 3517.24 343.825 3502 343.825C3478.81 343.825 3455.61 343.839 3432.41 343.853C3362.76 343.894 3293.05 343.935 3223.46 343.605C3210.71 343.605 3203.9 347.562 3198.62 359.434C3180.49 400.371 3161.77 441.161 3143.06 481.925C3138.86 491.072 3134.66 500.217 3130.47 509.362L3130.38 509.57C3101.83 572.154 3073.28 634.738 3044.52 697.322C3043.09 700.49 3041.21 703.315 3038.79 706.948C3037.85 708.359 3036.83 709.891 3035.72 711.611C3034.48 709.048 3033.36 706.79 3032.35 704.741C3030.15 700.29 3028.44 696.828 3026.93 693.365C3017.15 670.501 3007.42 647.638 2997.69 624.774C2987.96 601.912 2978.24 579.049 2968.45 556.187C2957.67 530.791 2946.81 505.428 2935.96 480.06C2918.72 439.768 2901.47 399.464 2884.48 358.994C2880.3 348.662 2874.8 343.825 2862.71 343.825C2782.91 344.045 2702.89 344.045 2623.09 344.045C2619.87 344.045 2616.65 344.398 2612.57 344.847Z" fill="black"/>
<path d="M488.696 489.579C495.511 493.096 500.787 496.174 506.283 498.812C545.854 517.718 579.489 544.318 606.309 578.612C632.03 611.588 650.056 648.74 659.07 690.069C668.742 734.696 668.742 779.543 665.225 824.609C663.027 853.628 658.85 882.206 650.496 910.126C631.37 974.318 593.558 1023.78 533.543 1054.56C504.744 1069.29 473.967 1078.52 441.651 1082.04C405.159 1085.99 368.666 1091.27 332.173 1091.49C228.41 1092.15 124.867 1090.61 21.1043 1089.95C1.09918 1089.95 0 1088.85 0 1068.63C0 884.405 0 700.402 0 516.179C0 352.84 0 189.282 0 25.9436C0 8.94296 8.6469 0.44262 25.9407 0.44262C124.427 0.44262 223.134 -0.876398 321.621 0.882293C377.459 1.98147 431.539 13.6328 479.463 44.8496C514.637 67.7126 541.017 98.2698 557.945 136.741C571.135 166.859 580.368 198.076 581.907 231.051C583.226 256.332 585.644 281.833 584.765 307.114C583.446 342.508 578.609 377.682 561.902 409.558C547.612 437.258 529.586 462.759 501.007 478.367C498.369 479.906 495.731 481.884 493.313 483.643C492.214 484.522 491.334 485.841 488.476 489.359L488.696 489.579ZM214.56 755.581C214.56 786.578 214.56 817.794 214.56 848.791C214.56 861.542 216.539 864.619 226.651 864.4C269.519 863.52 312.607 869.016 355.036 860.443C386.253 854.067 411.754 838.679 425.603 807.902C438.793 778.663 439.013 748.986 431.979 718.428C426.263 694.466 412.413 675.78 391.748 663.689C372.843 652.697 351.299 647.201 329.315 646.762C296.779 646.102 264.024 646.542 231.488 646.762C216.319 646.762 214.78 648.301 214.78 663.909C214.78 694.466 214.78 725.023 214.78 755.581H214.56ZM214.56 322.943C214.56 340.53 214.56 358.116 214.56 375.703C214.56 388.234 214.56 400.545 214.56 413.076C214.56 419.231 216.759 424.507 224.013 425.167C242.48 426.486 261.385 429.783 279.632 428.244C321.401 424.507 353.057 404.502 368.226 363.612C371.524 354.379 374.821 344.926 376.14 335.253C379.877 308.653 374.821 283.152 360.752 260.729C344.264 234.349 318.543 222.038 287.326 221.818C270.179 221.818 253.252 221.818 236.104 221.818C222.035 221.818 214.927 229.146 214.78 243.802C214.78 270.182 214.78 296.562 214.78 323.162L214.56 322.943Z" fill="#0A243A"/>
<path d="M1563.04 418.135V344.05C1582.83 341.852 1600.85 343.171 1618.88 342.951C1637.12 342.951 1655.15 342.951 1673.4 342.951H1781.78C1782.44 350.645 1783.32 356.141 1783.32 361.637C1783.32 605.436 1783.76 849.234 1782.88 1093.03C1782.88 1132.82 1776.06 1172.39 1763.97 1210.87C1754.08 1242.74 1741.77 1273.3 1723.96 1301.66C1692.3 1351.78 1651.19 1392.01 1596.89 1416.85C1565.9 1430.92 1533.14 1439.93 1498.63 1444.55C1464.33 1449.17 1430.26 1448.07 1396.18 1446.97C1363.65 1445.87 1331.77 1438.62 1300.56 1428.5C1271.1 1419.05 1244.28 1405.42 1219.66 1386.95C1188.22 1363.43 1164.7 1333.75 1146.67 1299.46C1125.79 1259.67 1115.01 1216.36 1107.98 1172.17C1107.54 1168.88 1108.2 1165.14 1108.42 1160.3C1114.79 1159.86 1120.29 1159.2 1125.79 1159.2C1187.56 1159.2 1249.11 1159.2 1310.89 1159.2C1327.82 1159.2 1328.25 1159.2 1333.97 1175.69C1340.57 1195.04 1350.24 1212.4 1363.65 1228.01C1379.04 1245.6 1397.94 1255.71 1420.59 1259.89C1435.32 1262.75 1449.38 1264.29 1464.77 1260.77C1496.43 1253.51 1518.63 1234.83 1534.24 1208.01C1554.03 1174.15 1563.7 1137.44 1562.82 1098.09C1562.38 1080.5 1562.82 1062.92 1562.82 1045.11C1562.82 1040.05 1562.38 1035 1561.94 1028.18C1557.76 1029.72 1554.47 1029.94 1552.93 1031.92C1535.78 1052.36 1513.14 1064.67 1489.39 1075.23C1461.48 1087.76 1432.24 1096.55 1401.68 1100.29C1386.29 1102.05 1370.46 1102.05 1355.07 1100.73C1321 1097.65 1287.59 1090.39 1256.59 1075.01C1229.77 1061.82 1206.47 1044.45 1185.8 1022.69C1156.12 991.249 1135.9 954.536 1120.73 914.306C1103.58 868.36 1093.47 820.875 1091.27 771.852C1089.51 736.678 1087.31 701.284 1089.07 666.33C1091.93 610.492 1105.34 557.072 1129.74 506.07C1145.79 472.435 1166.89 442.317 1191.74 415.277C1225.15 379.224 1265.6 353.943 1313.97 342.292C1341.66 335.477 1369.8 331.08 1398.38 331.959C1462.57 334.158 1516.21 357.24 1552.27 413.299C1553.81 415.717 1556.44 417.256 1558.42 419.454C1559.96 419.014 1561.28 418.795 1562.82 418.355L1563.04 418.135ZM1564.8 718.432C1563.04 703.043 1562.38 687.435 1559.08 672.266C1548.31 625.001 1520.39 592.246 1474.45 574.659C1456.2 567.624 1437.95 568.503 1419.27 568.283C1400.36 568.283 1383.43 575.318 1368.27 584.991C1343.2 600.819 1327.82 624.781 1319.24 652.92C1307.15 692.491 1306.71 732.721 1316.38 772.511C1326.72 813.841 1346.5 850.114 1386.95 870.119C1415.09 884.188 1443.89 886.387 1474.23 876.054C1504.34 865.722 1523.47 844.178 1538.86 818.237C1557.1 787.68 1563.92 753.825 1564.8 718.212V718.432Z" fill="#0A243A"/>
<path d="M2418.64 489.143C2425.02 492.881 2428.54 495.519 2432.49 497.277C2510.32 531.792 2562.86 589.169 2588.36 670.508C2601.77 712.937 2605.94 756.684 2602.65 801.091C2600.23 834.726 2597.15 868.141 2588.14 900.897C2567.69 975.421 2525.05 1030.16 2452.28 1060.06C2428.76 1069.73 2404.35 1075.89 2379.29 1080.5C2321.48 1091.06 2263.44 1086 2205.62 1086.44C2123.18 1087.32 2040.75 1086.44 1958.31 1086.22C1952.81 1086.22 1947.1 1086.22 1939.84 1086.22C1939.4 1076.99 1938.52 1069.29 1938.52 1061.82C1938.52 807.686 1938.52 553.555 1938.52 299.424C1938.52 208.632 1938.52 117.84 1938.52 27.0472C1938.52 23.31 1938.52 19.7926 1938.52 16.0554C1938.96 3.30486 1939.84 1.98584 1953.03 1.98584C2030.85 1.98584 2108.67 2.20568 2186.28 2.42551C2215.3 2.42551 2244.53 1.32633 2273.33 3.74453C2325.87 8.14126 2376.44 20.0124 2421.06 50.7895C2464.37 80.6873 2491.63 121.577 2506.14 171.48C2522.63 228.198 2524.61 286.014 2516.69 344.051C2512.29 375.488 2502.4 405.605 2483.94 432.206C2470.09 451.991 2453.82 468.918 2431.83 480.13C2428.32 481.889 2425.02 484.527 2418.64 488.923V489.143ZM2151.32 754.486C2151.32 786.582 2151.32 818.678 2151.32 850.774C2151.32 865.503 2152.64 867.042 2167.37 867.262C2195.29 867.702 2223.21 867.921 2251.13 866.822C2268.5 866.163 2286.3 863.964 2303.23 860.007C2328.95 854.072 2349.4 839.123 2361.49 815.161C2379.07 780.427 2379.51 744.373 2367.42 708.1C2358.41 681.28 2338.84 664.573 2312.9 654.46C2295.76 647.865 2277.73 645.887 2259.7 645.667C2230.68 645.667 2201.67 645.667 2172.65 645.227C2151.32 644.787 2151.32 644.348 2151.1 666.112C2151.1 695.57 2151.1 725.248 2151.1 754.706L2151.32 754.486ZM2151.54 324.046C2151.54 351.526 2151.54 379.005 2151.54 406.485C2151.54 428.249 2151.54 428.249 2172.65 428.468C2187.16 428.468 2201.67 428.468 2216.17 429.128C2262.78 431.766 2301.69 391.096 2310.7 357.461C2317.3 332.18 2316.86 307.558 2310.05 282.497C2301.03 248.422 2267.62 220.283 2231.34 221.383C2210.02 222.042 2188.92 221.383 2167.59 221.383C2153.08 221.383 2151.54 222.262 2151.54 236.991C2151.32 266.009 2151.54 295.028 2151.54 324.046Z" fill="black"/>
<path d="M4607.55 852.971C4606.45 874.295 4600.08 891.882 4593.7 909.249C4568.64 978.717 4524.45 1032.58 4459.82 1068.63C4416.73 1092.81 4369.91 1104.68 4320.66 1108.42C4287.47 1111.06 4254.27 1111.28 4221.3 1107.32C4094.01 1092.15 4002.34 1027.96 3952 908.589C3931.99 861.105 3924.08 811.202 3922.1 759.98C3920.56 716.892 3922.1 673.804 3929.14 631.376C3941.23 559.049 3966.51 492.439 4015.53 436.381C4057.74 388.017 4109.62 356.36 4171.84 340.972C4233.83 325.583 4296.04 324.044 4358.26 337.235C4442.67 354.821 4507.09 402.526 4553.91 474.412C4583.81 520.138 4602.5 570.261 4612.39 623.901C4620.74 668.528 4622.06 713.594 4621.4 758.661C4621.4 771.411 4619.42 772.95 4607.11 773.61C4601.84 773.83 4596.78 773.61 4591.5 773.61C4453.45 773.61 4315.61 773.61 4177.55 773.61C4170.52 773.61 4163.48 774.709 4154.69 775.369C4157.11 788.559 4157.99 799.99 4161.72 810.323C4167.88 827.25 4174.03 844.617 4183.49 860.006C4207.89 899.576 4244.6 914.965 4290.55 912.546C4327.7 910.568 4355.84 894.52 4374.74 862.424C4379.36 854.51 4385.52 850.992 4394.97 851.212C4460.92 851.432 4526.65 851.212 4592.6 851.212C4597 851.212 4601.62 852.091 4607.55 852.751V852.971ZM4384.2 610.711C4387.28 580.813 4361.55 532.01 4333.86 518.16C4297.58 499.913 4242.62 502.552 4211.63 526.514C4188.32 544.54 4167.66 589.387 4173.59 610.711H4384.2Z" fill="black"/>
<path d="M766.13 715.795C766.13 598.622 766.13 481.449 766.13 364.276C766.13 342.952 766.13 342.952 787.454 342.732C847.029 342.732 906.605 342.732 966.401 342.732C969.918 342.732 973.655 342.732 977.173 342.732C982.669 342.732 985.746 345.81 986.186 351.306C986.406 355.483 986.406 359.66 986.406 363.837C986.406 598.622 986.406 833.627 986.406 1068.41C986.406 1072.15 986.406 1075.67 986.186 1079.4C985.746 1085.56 982.668 1088.86 976.513 1089.3C972.996 1089.52 969.258 1089.74 965.741 1089.74C906.165 1089.74 846.59 1089.74 786.794 1089.74C783.717 1089.74 780.639 1089.74 777.561 1089.74C770.087 1089.74 765.91 1086 766.13 1078.31C766.13 1074.57 766.13 1071.05 766.13 1067.31C766.13 950.14 766.13 832.968 766.13 715.795Z" fill="#0A243A"/>
<path d="M876.266 222.04C933.209 222.04 979.37 175.879 979.37 118.936C979.37 61.9939 933.209 15.833 876.266 15.833C819.324 15.833 773.163 61.9939 773.163 118.936C773.163 175.879 819.324 222.04 876.266 222.04Z" fill="#FF9908"/>
</svg>
